<?xml version="1.0" standalone="no"?>
<!DOCTYPE svg PUBLIC "-//W3C//DTD SVG 20010904//EN"
 "http://www.w3.org/TR/2001/REC-SVG-20010904/DTD/svg10.dtd">
<svg version="1.0" xmlns="http://www.w3.org/2000/svg"
 width="800.000000pt" height="800.000000pt" viewBox="0 0 800.000000 800.000000"
 preserveAspectRatio="xMidYMid meet">
<metadata>
Created by potrace 1.14, written by Peter Selinger 2001-2017
</metadata>
<g transform="translate(0.000000,800.000000) scale(0.100000,-0.100000)"
fill="#000000" stroke="none">
<path d="M945 7918 c-15 -189 -13 -308 10 -658 3 -52 6 -102 7 -110 0 -8 4
-42 8 -75 5 -33 12 -96 16 -140 3 -44 8 -83 10 -86 2 -3 6 -26 9 -50 3 -24 10
-71 16 -104 20 -106 18 -134 -7 -138 -5 -1 -8 -6 -6 -10 1 -4 -5 -10 -13 -13
-8 -3 -12 -10 -9 -15 5 -8 -10 -13 -29 -10 -5 1 -5 -4 -1 -10 4 -7 -1 -18 -11
-26 -11 -7 -15 -13 -10 -13 4 0 -2 -9 -15 -20 -13 -11 -20 -20 -16 -20 4 0 -5
-11 -19 -25 -14 -14 -25 -30 -25 -35 0 -6 -7 -10 -16 -10 -8 0 -13 -4 -9 -9 3
-6 -8 -24 -24 -40 -17 -17 -28 -31 -25 -31 2 0 -3 -14 -11 -31 -9 -17 -19 -28
-22 -25 -3 2 -15 -14 -28 -37 -12 -23 -27 -41 -33 -40 -6 2 -9 -4 -6 -12 3 -7
-3 -21 -14 -31 -12 -9 -18 -24 -14 -32 3 -10 1 -13 -6 -8 -7 4 -12 1 -12 -8 0
-9 -5 -16 -10 -16 -6 0 -9 -3 -8 -7 2 -12 -14 -47 -26 -55 -6 -4 -11 -13 -11
-20 -1 -7 -6 -12 -12 -11 -6 1 -10 -3 -10 -10 1 -31 -4 -47 -14 -47 -5 0 -7 6
-3 13 4 7 3 8 -2 4 -5 -5 -9 -14 -10 -20 0 -7 -2 -20 -2 -30 -1 -11 -7 -15
-14 -11 -7 5 -8 3 -4 -5 5 -7 0 -19 -10 -27 -11 -9 -14 -13 -8 -10 7 3 5 -8
-4 -29 -9 -19 -18 -32 -22 -30 -3 2 -7 -6 -7 -18 -1 -12 -7 -23 -13 -25 -5 -2
-10 -12 -10 -23 0 -10 -5 -19 -10 -19 -6 0 -9 -3 -8 -7 1 -5 -3 -18 -10 -29
-6 -12 -8 -24 -5 -28 3 -3 2 -6 -3 -6 -5 0 -16 -20 -23 -45 -7 -25 -17 -43
-22 -40 -4 3 -6 -4 -4 -15 2 -11 0 -20 -6 -20 -5 0 -9 -11 -9 -24 0 -14 -4
-28 -10 -31 -5 -3 -10 -14 -10 -25 0 -10 -6 -20 -14 -23 -9 -4 -12 -14 -9 -26
3 -12 1 -21 -5 -21 -6 0 -8 -9 -5 -20 3 -12 0 -20 -6 -20 -7 0 -10 -4 -7 -9 3
-5 -1 -14 -9 -21 -8 -7 -15 -18 -15 -24 0 -6 5 -4 10 4 6 9 10 10 10 3 0 -6
-6 -18 -13 -25 -8 -7 -12 -19 -9 -26 2 -6 -1 -12 -6 -12 -6 0 -8 -9 -5 -20 3
-11 0 -20 -6 -20 -5 0 -8 -6 -5 -14 3 -8 0 -17 -5 -21 -6 -3 -9 -11 -6 -16 4
-5 2 -9 -4 -9 -6 0 -8 -7 -5 -15 4 -9 0 -15 -7 -15 -12 0 -12 -2 0 -9 9 -6 10
-11 2 -15 -6 -4 -9 -12 -6 -17 4 -5 2 -9 -3 -9 -5 0 -9 -8 -9 -17 1 -24 -12
-74 -24 -97 -7 -12 -7 -16 0 -12 7 4 8 1 5 -8 -3 -9 -10 -16 -15 -16 -5 0 -9
-5 -9 -11 0 -5 4 -7 10 -4 5 3 10 1 10 -4 0 -6 -4 -11 -8 -11 -7 0 -11 -20
-13 -67 -1 -13 -5 -23 -9 -23 -4 0 -6 -12 -4 -26 3 -34 -5 -56 -19 -47 -6 4
-7 1 -1 -8 12 -19 14 -39 4 -39 -4 0 -6 -13 -4 -30 2 -16 0 -31 -5 -34 -4 -3
-7 -21 -5 -41 2 -25 -1 -33 -9 -28 -7 4 -6 -1 2 -10 7 -9 10 -17 5 -17 -5 0
-9 -73 -9 -163 0 -89 -3 -170 -8 -179 -4 -9 -4 -19 0 -21 7 -5 9 -196 3 -222
-1 -5 -1 -12 0 -15 1 -3 3 -60 4 -128 2 -67 6 -125 9 -129 10 -9 9 -25 -1 -19
-13 8 -8 -30 6 -46 9 -11 9 -18 -1 -28 -7 -8 -8 -10 -1 -7 7 4 12 -3 12 -21 3
-77 7 -110 16 -105 5 3 6 0 4 -8 -3 -8 -1 -22 4 -31 6 -12 5 -18 -3 -18 -8 0
-7 -5 2 -17 12 -14 12 -16 -1 -9 -8 4 -7 1 3 -7 12 -10 14 -17 8 -22 -6 -3
-11 -12 -11 -18 0 -7 4 -6 11 3 9 12 10 11 6 -7 -3 -13 0 -23 5 -23 6 0 5 -6
-2 -15 -10 -12 -9 -16 4 -21 9 -3 16 -10 16 -16 0 -5 -6 -6 -12 -2 -10 6 -9 4
0 -8 7 -9 14 -30 14 -47 1 -18 5 -28 11 -24 6 4 8 0 5 -9 -4 -8 -2 -21 2 -28
5 -8 4 -22 -1 -32 -7 -14 -6 -16 6 -12 11 5 15 -1 16 -22 1 -16 1 -32 0 -36 0
-5 4 -8 10 -8 6 0 8 -9 4 -21 -5 -15 -4 -19 4 -14 8 5 10 -1 5 -21 -5 -21 -4
-25 6 -19 10 6 12 4 7 -7 -3 -9 1 -25 9 -36 7 -11 15 -36 16 -55 2 -19 6 -33
9 -31 3 2 11 -8 18 -22 6 -15 7 -23 1 -19 -5 3 -10 1 -10 -4 0 -6 5 -11 11
-11 5 0 7 -4 4 -10 -3 -5 -1 -10 5 -10 6 0 8 -4 5 -10 -3 -5 -1 -10 4 -10 6 0
11 -9 11 -19 0 -11 5 -23 11 -26 6 -4 8 -13 5 -20 -3 -8 2 -19 10 -25 8 -7 14
-23 14 -36 0 -13 4 -24 9 -24 5 0 8 -11 7 -24 -2 -18 1 -23 12 -18 12 4 14 0
10 -16 -4 -12 -2 -19 3 -16 5 3 12 -8 15 -25 4 -17 11 -31 16 -31 5 0 7 -4 3
-9 -3 -5 -1 -12 4 -16 6 -3 7 -13 4 -22 -4 -10 -2 -14 4 -10 6 4 16 -11 23
-33 7 -22 17 -37 21 -34 5 3 9 -6 9 -20 0 -14 8 -30 19 -35 12 -7 17 -19 16
-35 -2 -17 1 -23 11 -19 9 3 12 -2 9 -16 -2 -12 1 -20 8 -18 7 1 11 -6 11 -15
-1 -10 3 -18 8 -18 6 0 8 -7 5 -14 -4 -11 -1 -13 10 -9 10 4 14 2 10 -4 -4 -6
0 -16 9 -24 20 -16 41 -54 24 -44 -8 5 -8 1 1 -13 7 -12 16 -19 19 -17 3 2 12
-6 20 -18 12 -21 12 -21 -5 -7 -17 14 -17 14 -4 -7 7 -12 15 -20 18 -18 9 9
32 -35 25 -48 -4 -6 -4 -9 0 -5 10 8 36 -14 29 -24 -2 -5 1 -8 8 -8 7 0 10 -3
6 -6 -3 -4 2 -14 11 -23 12 -11 13 -13 2 -7 -8 5 0 -5 17 -21 18 -17 33 -38
33 -47 0 -10 5 -14 10 -11 6 3 10 1 10 -6 0 -6 8 -18 17 -26 10 -8 12 -12 6
-8 -9 4 -11 1 -7 -9 3 -9 9 -14 13 -11 4 2 15 -5 24 -16 9 -10 14 -19 11 -19
-4 0 11 -16 32 -36 25 -22 32 -33 19 -29 -13 5 -11 1 8 -12 15 -11 24 -23 20
-26 -3 -4 2 -7 11 -7 13 0 16 -5 12 -17 -4 -10 -4 -15 -1 -11 10 10 75 -55 75
-74 0 -10 5 -18 11 -18 5 0 7 6 3 13 -5 8 -2 7 9 -2 14 -11 15 -16 5 -29 -11
-13 -11 -14 0 -8 16 10 60 -28 73 -62 5 -12 20 -27 33 -32 13 -5 28 -15 32
-22 5 -9 2 -8 -11 2 -13 10 -16 11 -11 2 4 -7 19 -17 32 -22 13 -5 24 -16 24
-25 0 -8 3 -14 8 -13 12 4 62 -45 55 -55 -4 -6 -1 -7 7 -2 10 6 12 4 6 -11 -6
-15 -4 -16 5 -7 9 9 15 9 26 -2 7 -8 13 -18 12 -21 0 -4 14 -15 32 -23 19 -9
39 -27 45 -39 8 -17 13 -20 17 -10 4 8 6 7 6 -5 1 -11 5 -15 13 -11 7 5 9 2 5
-9 -4 -11 -2 -14 7 -11 8 3 24 -5 38 -18 15 -14 16 -17 3 -8 -20 15 -20 15 -1
-7 10 -13 22 -21 26 -18 4 2 16 -3 26 -11 10 -9 13 -12 5 -8 -9 4 -12 3 -7 -4
4 -6 14 -8 23 -5 12 5 15 2 10 -9 -4 -12 0 -15 16 -11 17 4 19 2 8 -5 -11 -8
-9 -11 10 -14 13 -2 23 -9 21 -16 -1 -8 2 -11 8 -7 5 3 10 1 10 -4 0 -6 3 -10
8 -10 4 1 14 1 22 0 13 -1 13 -2 0 -12 -12 -9 -11 -10 7 -6 23 5 48 -14 36
-27 -4 -4 1 -4 11 0 14 5 17 4 12 -4 -5 -8 0 -12 14 -12 11 0 23 -7 26 -15 4
-8 10 -12 15 -9 5 3 9 1 9 -4 0 -6 11 -13 25 -16 14 -4 23 -10 20 -15 -2 -5 2
-12 11 -15 8 -3 12 -2 9 4 -3 6 -4 10 0 10 3 0 10 -12 15 -26 9 -22 13 -24 25
-14 12 10 15 9 15 -4 0 -9 3 -15 8 -15 4 1 14 1 22 0 13 -1 13 -2 0 -12 -12
-8 -10 -9 8 -4 13 4 22 2 22 -4 0 -6 6 -10 13 -9 6 2 11 -3 9 -10 -1 -8 2 -11
9 -7 15 10 60 -15 52 -28 -4 -6 2 -8 15 -5 12 3 29 -1 39 -9 11 -9 12 -12 3
-8 -8 4 -4 -2 9 -13 13 -10 34 -18 48 -16 15 1 28 -5 36 -17 6 -10 22 -19 35
-19 14 0 21 -4 16 -11 -4 -8 1 -9 16 -4 17 5 21 4 15 -6 -6 -9 -3 -11 8 -6 10
3 17 2 17 -4 0 -6 5 -7 10 -4 6 3 10 2 10 -4 0 -6 7 -7 17 -4 11 4 14 3 9 -5
-6 -11 20 -18 47 -13 5 1 6 -3 2 -9 -3 -6 3 -10 15 -10 12 0 34 -7 50 -15 20
-10 31 -12 35 -4 5 7 13 5 25 -6 10 -9 24 -14 29 -10 6 3 11 1 11 -5 0 -7 7
-10 15 -6 8 3 15 1 15 -5 0 -5 11 -7 25 -5 14 3 23 1 20 -4 -3 -5 -1 -11 5
-15 5 -3 10 -1 10 5 0 6 7 4 16 -5 9 -9 23 -14 30 -11 8 3 14 1 14 -4 0 -6 11
-10 24 -10 14 0 28 -5 31 -10 4 -6 12 -10 18 -9 7 1 19 0 27 -4 28 -10 75 -21
93 -20 9 0 17 -4 17 -9 0 -5 4 -6 10 -3 5 3 16 3 22 -2 16 -9 36 -15 66 -17
12 0 22 -4 22 -8 0 -3 13 -5 30 -3 16 2 35 -1 42 -8 7 -7 24 -13 38 -14 68 -4
90 -8 90 -13 0 -3 17 -6 38 -7 20 0 51 -3 67 -7 17 -3 55 -9 85 -12 30 -4 57
-8 59 -10 2 -2 12 1 22 7 11 5 19 6 19 1 0 -11 4 -12 135 -17 134 -6 126 -5
358 -3 122 1 187 5 187 12 0 6 4 6 11 -1 9 -9 15 -8 26 2 10 10 20 12 38 5 14
-5 25 -6 25 -2 0 5 17 7 38 6 20 -1 41 1 47 4 10 6 40 11 100 16 22 2 51 7 65
10 14 3 37 7 53 8 17 1 27 8 27 18 0 10 3 11 8 3 5 -8 19 -9 44 -4 20 5 39 6
42 3 4 -3 6 1 6 8 0 7 3 10 7 7 3 -4 13 -1 21 6 13 10 14 9 7 -3 -6 -12 -5
-12 5 -3 7 6 19 9 26 6 8 -3 14 -1 14 5 0 6 10 8 22 4 13 -3 19 -1 15 5 -5 7
0 9 13 6 11 -3 18 -8 15 -12 -2 -4 10 -5 27 -3 21 3 26 7 17 13 -9 6 -10 9 -2
9 6 0 19 3 29 7 10 4 15 2 11 -4 -3 -5 0 -10 8 -10 8 0 12 4 9 8 -7 11 12 20
46 21 18 1 27 5 23 12 -4 6 0 5 9 -2 13 -10 18 -10 24 -1 5 8 3 9 -6 4 -9 -5
-11 -4 -6 3 5 8 13 9 24 3 20 -10 57 10 44 25 -4 4 2 2 12 -6 11 -8 17 -10 13
-4 -7 11 41 39 51 29 3 -3 0 -5 -7 -5 -7 0 -9 -4 -6 -10 4 -6 11 -5 19 3 8 6
12 15 10 18 -2 4 5 9 16 12 11 3 18 2 15 -2 -2 -4 2 -8 9 -8 9 0 12 7 8 16 -5
14 -3 14 10 3 13 -10 18 -10 24 -1 5 8 3 9 -6 4 -9 -5 -11 -4 -6 4 6 9 11 9
24 -1 13 -11 14 -11 7 1 -6 11 -4 13 7 9 8 -4 21 -2 29 4 11 7 9 8 -6 3 -28
-9 -7 8 28 23 20 8 26 9 21 1 -4 -8 0 -8 15 0 11 7 21 16 21 22 0 6 5 7 10 4
6 -4 17 -1 25 5 8 6 18 9 23 7 4 -3 14 -1 22 5 12 8 12 9 -3 4 -11 -4 -16 -2
-11 5 3 6 17 9 30 6 13 -2 22 1 21 7 -1 6 8 12 21 14 12 2 22 7 22 12 0 4 7
11 16 14 10 4 13 2 8 -7 -6 -9 -5 -9 8 0 8 7 19 9 23 5 5 -4 4 -1 0 7 -6 11
-4 13 8 8 11 -4 14 -2 10 9 -4 10 0 12 13 7 13 -5 15 -3 9 8 -7 12 -6 12 11
-1 10 -8 16 -10 12 -6 -4 5 -3 15 3 23 9 10 15 11 26 1 11 -9 13 -8 11 2 -2 9
6 15 20 16 12 1 26 5 30 9 4 5 -2 5 -12 1 -16 -5 -17 -4 -7 8 7 8 19 12 27 9
8 -3 14 0 14 6 0 6 6 11 14 11 8 0 16 5 18 10 2 6 13 12 25 13 12 0 20 3 18 6
-8 7 34 33 44 26 5 -3 13 0 17 6 5 8 3 9 -6 4 -9 -6 -11 -4 -5 4 4 7 15 11 25
8 12 -3 17 0 14 8 -3 7 0 16 7 21 7 4 10 3 6 -2 -3 -6 4 -10 16 -11 12 0 16 1
10 4 -20 7 -15 23 7 23 11 0 23 7 26 15 4 8 13 15 21 15 9 0 11 5 7 13 -6 8
-3 8 9 -2 14 -11 18 -10 28 12 8 17 17 23 27 20 9 -4 13 -2 9 4 -9 14 29 47
47 40 11 -4 13 -1 9 11 -3 9 -3 14 2 10 4 -4 15 1 24 10 9 10 12 12 7 5 -5 -8
-4 -13 2 -13 6 0 14 9 17 21 4 13 12 18 21 15 8 -3 12 -2 9 3 -8 15 56 70 73
63 11 -4 14 -1 9 12 -4 10 -3 15 3 11 5 -3 14 4 20 15 6 11 17 20 25 20 8 0
15 5 15 11 0 5 5 7 10 4 6 -4 9 -1 8 7 -2 7 5 12 14 12 9 -1 14 4 12 11 -3 7
0 16 7 21 8 4 10 3 5 -4 -5 -8 -1 -10 9 -6 9 4 14 13 11 20 -3 9 0 11 11 7 10
-4 14 -2 11 8 -5 16 47 63 61 55 5 -4 13 -1 17 5 4 8 3 9 -4 5 -7 -4 -12 -2
-12 3 0 6 6 11 14 11 8 0 18 5 22 12 5 7 3 8 -7 3 -8 -5 6 12 31 37 25 25 48
44 51 42 4 -2 9 5 12 16 3 11 13 20 22 20 11 0 15 5 11 16 -3 8 -2 12 3 9 5
-3 12 4 16 15 3 11 11 20 17 20 6 0 5 -7 -3 -18 -13 -15 -12 -16 3 -3 10 7 15
17 12 22 -3 5 0 9 6 9 6 0 8 5 5 10 -3 6 -1 10 4 10 6 0 11 8 11 18 0 14 2 15
10 2 8 -13 10 -12 10 3 0 10 4 16 9 12 5 -3 13 0 17 6 4 8 3 9 -4 5 -24 -15
-10 7 45 72 31 37 62 66 69 66 6 -1 9 7 7 17 -3 11 0 19 6 19 7 0 9 -6 5 -12
-4 -7 -3 -9 1 -5 5 4 10 15 11 23 5 33 15 46 30 40 9 -4 12 -2 8 5 -8 14 16
60 28 53 4 -3 8 4 8 15 0 19 11 26 34 22 5 -1 4 4 -3 13 -9 11 -9 16 0 22 8 5
9 3 4 -6 -5 -9 -4 -11 3 -6 7 4 12 16 12 28 0 15 4 18 17 14 10 -4 14 -4 10 0
-4 4 -1 14 6 22 10 13 9 14 -1 8 -11 -7 -12 -4 -3 13 7 11 14 21 17 21 3 0 2
-4 -1 -10 -3 -5 -1 -10 6 -10 6 0 9 8 6 20 -3 13 0 20 10 20 9 0 13 6 9 15 -3
8 -1 15 4 15 6 0 9 3 9 7 -3 21 2 26 12 13 8 -12 9 -9 4 9 -6 19 -4 23 8 18
11 -4 13 0 10 14 -3 10 0 19 6 19 6 0 11 7 11 16 0 8 4 12 10 9 6 -4 7 1 3 11
-4 12 -3 15 5 10 8 -5 10 -2 6 8 -4 11 0 16 10 16 9 0 16 5 16 11 0 5 -4 7
-10 4 -6 -3 -7 1 -4 9 3 9 9 14 13 12 3 -2 13 3 21 12 13 14 12 15 -3 9 -14
-5 -15 -4 -5 13 7 10 16 16 21 13 5 -3 7 0 5 8 -5 14 17 69 28 69 3 0 2 -5 -2
-12 -5 -7 -3 -8 5 -3 9 5 10 10 2 18 -8 8 -3 16 17 30 15 10 20 17 11 14 -13
-4 -15 -1 -12 14 3 10 12 19 19 19 14 0 17 8 17 43 0 9 3 17 8 17 5 0 13 10
20 21 6 12 7 19 1 15 -6 -4 -8 2 -5 14 3 11 9 18 13 15 4 -2 12 6 18 20 8 18
8 25 -1 29 -9 3 -8 5 1 5 7 1 10 6 7 11 -3 6 2 10 12 10 14 0 15 2 4 9 -9 6
-10 11 -2 15 6 4 9 11 6 16 -3 4 2 10 10 14 8 3 15 11 15 18 0 9 -3 9 -11 -2
-9 -12 -10 -12 -5 3 3 10 6 21 6 23 0 3 6 2 13 -2 6 -4 9 -4 5 1 -4 4 -2 15 5
23 8 11 8 13 0 9 -7 -5 -9 0 -6 13 3 11 13 20 22 21 9 0 11 3 5 5 -13 5 -7 44
6 44 5 0 6 10 2 22 -3 12 -1 19 4 15 6 -3 16 4 24 16 12 20 12 21 -4 8 -15
-12 -16 -12 -10 5 4 10 14 28 23 39 15 18 15 19 -1 6 -26 -19 -22 -6 5 20 12
12 16 18 8 14 -11 -6 -13 -4 -8 9 4 10 7 20 7 22 0 3 4 3 9 -1 15 -8 21 9 9
25 -8 12 -8 11 -3 -5 5 -17 4 -18 -7 -7 -11 11 -10 16 6 28 11 8 14 14 7 14
-9 0 -8 5 3 16 18 17 21 28 6 19 -6 -3 -10 -2 -10 4 0 5 8 15 18 20 10 6 12
11 4 11 -7 0 -10 5 -7 10 4 6 12 7 18 3 8 -4 8 -2 -1 9 -9 11 -10 23 -3 41 5
14 7 28 3 33 -4 4 0 5 9 2 16 -6 20 17 5 40 -4 7 -2 12 4 12 6 0 8 11 6 25 -3
13 0 28 6 31 7 5 8 2 3 -6 -5 -9 -4 -11 3 -6 9 5 9 13 2 26 -12 23 -13 33 -1
26 5 -4 7 4 3 16 -3 12 -1 19 4 15 6 -3 11 3 11 14 1 12 -2 17 -10 12 -7 -3
-4 2 5 13 14 16 15 23 6 32 -9 9 -9 12 1 12 7 0 9 4 6 10 -3 5 -1 19 6 31 6
12 7 19 2 16 -5 -3 -10 3 -10 14 -1 10 3 19 8 19 6 0 7 -4 4 -10 -4 -6 1 -7
11 -3 11 4 13 8 6 11 -7 2 -9 9 -6 14 4 6 3 9 -2 5 -18 -11 -9 71 11 93 13 14
14 19 4 15 -10 -4 -15 1 -16 15 -1 11 3 20 8 20 6 0 7 -6 3 -12 -4 -7 -3 -9 1
-5 11 10 15 98 4 91 -5 -2 -6 -12 -3 -22 5 -14 4 -15 -5 -2 -7 11 -6 21 5 39
9 13 11 20 5 17 -6 -4 -11 -2 -11 3 0 6 5 11 10 11 7 0 7 7 -1 21 -8 17 -8 20
1 14 10 -6 10 -3 2 11 -6 11 -7 27 -1 42 6 15 5 21 -1 17 -6 -3 -10 -1 -10 4
0 6 4 11 9 11 6 0 6 12 1 30 -6 21 -5 30 3 30 7 0 6 4 -3 10 -9 6 -10 10 -3
10 8 0 9 9 3 30 -6 21 -5 30 3 30 7 0 6 4 -3 10 -9 6 -10 10 -3 10 8 0 9 9 3
30 -6 20 -5 30 2 30 7 0 7 4 0 13 -6 7 -7 18 -2 27 4 7 4 24 -1 37 -11 30 -11
36 0 29 10 -7 9 13 -1 29 -4 6 -3 17 2 25 9 14 2 43 -9 36 -4 -3 -7 4 -7 14 0
12 4 16 11 10 6 -5 10 1 10 20 1 16 -4 26 -10 24 -6 -3 -11 6 -12 18 0 13 1
17 4 10 3 -6 9 -9 14 -6 6 3 3 11 -7 19 -21 14 -31 60 -12 49 7 -4 4 3 -7 16
l-20 23 25 -13 25 -13 -24 27 c-14 14 -22 26 -19 26 3 0 2 16 -2 35 -5 21 -4
38 2 41 5 4 5 11 -1 18 -6 7 -8 16 -4 19 3 4 1 7 -5 7 -7 0 -12 5 -12 11 0 5
6 7 13 3 8 -5 8 -2 -2 9 -7 9 -10 17 -5 17 4 0 3 5 -4 12 -16 16 -15 31 1 22
8 -6 8 -3 -2 9 -7 9 -11 23 -8 31 3 7 0 19 -6 25 -6 6 -7 11 -3 11 5 0 1 12
-9 26 -9 15 -12 23 -6 20 6 -4 11 -2 11 3 0 6 -4 11 -9 11 -6 0 -9 8 -9 18 0
9 -3 26 -7 36 -7 15 -5 17 6 11 8 -5 7 0 -4 12 -11 12 -15 27 -11 38 5 13 4
16 -5 11 -8 -5 -10 0 -7 18 3 15 1 24 -4 21 -5 -3 -9 3 -9 12 -1 40 -5 53 -14
53 -5 0 -7 9 -4 20 3 11 0 20 -6 20 -7 0 -5 5 3 10 13 8 12 10 -4 10 -13 0
-17 5 -13 20 3 11 1 23 -5 26 -5 3 -7 12 -4 20 3 8 1 14 -5 14 -6 0 -8 4 -5 9
4 5 1 11 -6 13 -7 3 -13 16 -13 31 -1 14 -8 34 -16 43 -9 11 -9 15 -1 10 6 -4
12 -2 12 3 0 6 -5 11 -11 11 -5 0 -7 5 -4 10 3 6 1 10 -5 10 -6 0 -8 5 -5 10
3 6 1 10 -5 10 -7 0 -9 7 -6 15 3 9 -1 18 -9 22 -13 4 -13 8 -3 21 8 10 8 13
2 9 -7 -4 -15 0 -18 9 -4 10 -2 13 7 9 6 -4 3 1 -7 9 -11 9 -16 16 -12 16 5 0
1 12 -9 26 -9 14 -14 32 -11 39 3 8 0 17 -6 21 -7 5 -8 2 -3 -6 5 -9 4 -11 -3
-6 -7 4 -12 16 -12 27 0 10 -4 19 -10 19 -5 0 -10 5 -10 11 0 5 5 7 11 4 6 -4
5 2 -3 14 -7 12 -17 21 -22 21 -4 0 -6 9 -3 20 3 11 1 17 -4 14 -11 -6 -29 37
-21 50 3 5 0 6 -6 2 -7 -4 -12 -4 -13 1 -2 27 -9 47 -22 61 -15 19 -52 95 -48
101 2 2 -4 8 -13 13 -9 5 -16 17 -16 26 0 10 -9 24 -19 31 -11 8 -17 20 -14
27 2 6 -5 19 -17 27 -11 8 -20 18 -19 23 4 15 -13 44 -21 39 -11 -7 -22 24
-13 37 4 7 1 8 -7 3 -10 -6 -12 -4 -7 8 4 12 2 14 -10 10 -11 -4 -14 -2 -11 8
2 7 -4 23 -15 34 -33 35 -62 79 -46 71 7 -4 2 2 -14 14 -15 12 -25 26 -22 30
3 5 -4 14 -15 20 -14 8 -19 17 -15 28 3 9 3 13 -1 10 -7 -7 -28 10 -34 27 -1
6 -11 16 -21 23 -11 7 -19 18 -19 23 0 5 -10 21 -22 34 -81 85 -80 83 -73 143
4 31 8 59 10 62 5 9 35 190 40 245 1 22 8 76 15 120 6 43 13 102 15 130 1 27
5 82 9 120 15 150 20 421 12 600 -4 102 -2 95 -29 95 -17 0 -22 -6 -23 -27 -1
-16 -7 -53 -13 -83 -6 -30 -14 -68 -17 -84 -3 -16 -7 -33 -9 -36 -3 -4 -7 -29
-10 -56 -4 -26 -9 -52 -12 -57 -5 -8 -19 -65 -49 -196 -3 -13 -9 -32 -15 -43
-5 -10 -7 -18 -5 -18 3 0 -2 -19 -11 -42 -8 -24 -17 -52 -18 -63 -6 -36 -122
-370 -148 -422 -5 -13 -14 -23 -19 -23 -5 0 -6 5 -3 10 3 6 1 10 -5 10 -7 0
-27 16 -46 35 -18 19 -38 35 -44 35 -6 0 -8 5 -5 10 3 6 1 10 -5 10 -6 0 -8 5
-4 12 5 7 2 9 -8 6 -9 -4 -22 4 -33 18 -10 13 -23 24 -29 24 -15 0 -46 37 -38
45 4 3 -1 3 -11 -1 -12 -4 -17 -1 -17 9 0 9 -5 19 -12 23 -7 5 -8 2 -3 -7 4
-8 -4 -2 -19 14 -15 15 -31 27 -37 27 -6 0 -7 4 -4 10 3 6 -1 7 -9 4 -9 -4
-18 1 -22 10 -3 9 -12 16 -20 16 -8 0 -14 5 -14 10 0 6 -7 10 -15 10 -8 0 -15
5 -15 10 0 6 -7 10 -16 10 -8 0 -13 4 -10 8 2 4 -9 14 -25 21 -16 7 -26 17
-23 23 4 6 3 9 -2 6 -15 -9 -54 10 -54 27 0 9 -5 13 -10 10 -11 -7 -63 29 -54
38 3 3 -3 4 -13 3 -10 0 -17 4 -16 11 2 7 -4 10 -12 7 -8 -4 -15 -1 -15 5 0 6
-3 10 -7 10 -21 -3 -33 2 -27 13 4 7 3 8 -4 4 -6 -4 -19 0 -29 9 -10 8 -22 15
-28 16 -15 1 -78 41 -93 59 -8 8 -10 9 -7 2 6 -11 3 -11 -16 0 -13 7 -32 19
-41 27 -10 8 -18 10 -18 6 0 -5 -7 0 -16 11 -8 10 -12 12 -8 4 5 -9 -1 -8 -15
5 -13 11 -25 19 -27 18 -12 -8 -24 -1 -18 9 4 6 3 8 -3 5 -5 -3 -22 1 -37 9
-16 7 -35 14 -43 14 -8 0 -11 5 -7 12 4 6 3 8 -3 5 -6 -4 -27 2 -48 13 -21 11
-42 17 -46 14 -5 -3 -9 -1 -9 4 0 6 -11 13 -25 16 -13 3 -34 10 -47 15 -13 5
-27 9 -33 11 -5 1 -19 9 -29 18 -11 9 -16 11 -12 5 5 -9 2 -11 -8 -7 -9 3 -16
10 -16 16 0 5 -4 7 -8 4 -11 -7 -84 19 -76 27 3 3 -3 3 -14 1 -10 -3 -26 2
-36 11 -11 11 -16 12 -16 4 0 -10 -3 -10 -12 -1 -7 7 -23 12 -36 12 -13 0 -21
3 -19 8 3 4 -6 8 -19 9 -53 5 -59 6 -71 16 -7 5 -13 6 -13 2 0 -4 -6 -2 -14 4
-7 6 -21 9 -30 5 -9 -3 -16 -2 -16 3 0 5 -12 10 -27 11 -46 4 -80 14 -117 33
-13 7 -16 7 -11 0 3 -6 2 -11 -4 -11 -5 0 -15 8 -20 18 -6 9 -11 12 -11 5 0
-7 -9 -10 -22 -6 -13 3 -33 5 -45 5 -13 0 -23 4 -23 10 0 5 -4 7 -9 4 -5 -4
-11 0 -14 6 -3 10 -7 10 -18 1 -9 -7 -20 -8 -28 -4 -7 5 -22 6 -34 3 -11 -3
-18 -1 -15 4 4 5 -14 10 -38 10 -82 3 -86 3 -78 17 5 7 1 7 -10 -2 -15 -13
-19 -13 -27 0 -6 10 -9 11 -9 1 0 -7 -5 -10 -11 -6 -7 4 -31 8 -55 10 -32 2
-42 -1 -37 -9 5 -9 3 -9 -8 -1 -8 5 -21 10 -29 9 -8 0 -18 3 -21 8 -4 5 -13 6
-20 2 -15 -10 -70 -15 -65 -6 2 3 -11 6 -29 6 -18 0 -31 -3 -28 -7 2 -5 0 -8
-6 -8 -5 0 -12 6 -14 13 -4 9 -6 9 -6 0 -1 -9 -8 -10 -26 -3 -14 5 -25 6 -25
2 0 -11 -94 -8 -102 3 -5 6 -8 5 -8 -3 0 -8 -5 -10 -12 -6 -17 11 -48 12 -42
2 7 -11 -3 -10 -28 3 -15 8 -19 8 -14 0 8 -12 -21 -11 -41 2 -6 4 -15 2 -19
-4 -5 -8 -3 -9 6 -4 8 5 11 4 6 -3 -4 -6 -13 -9 -21 -6 -8 4 -12 11 -9 16 4 6
-5 3 -19 -6 -20 -13 -26 -14 -30 -4 -4 10 -6 10 -6 -1 -1 -11 -4 -11 -18 0
-12 10 -15 11 -9 1 6 -9 1 -11 -18 -8 -14 3 -26 0 -26 -5 0 -5 -9 -9 -21 -9
-12 0 -17 4 -13 11 4 8 0 8 -15 0 -11 -7 -21 -9 -21 -5 0 3 -6 1 -14 -5 -10
-8 -16 -9 -21 -1 -3 5 -12 10 -18 10 -7 0 -6 -4 3 -11 11 -7 6 -9 -20 -7 -19
1 -41 -1 -48 -6 -6 -4 -12 -4 -12 0 0 3 -7 1 -15 -6 -12 -10 -15 -10 -15 0 0
10 -3 10 -15 0 -12 -10 -15 -10 -15 1 0 12 -2 12 -9 0 -5 -7 -23 -14 -40 -15
-17 0 -31 -4 -31 -9 0 -4 -11 -5 -25 -3 -14 3 -25 0 -25 -6 0 -6 -11 -8 -25
-6 -14 3 -25 2 -25 -2 0 -7 -16 -10 -62 -11 -16 -1 -25 -6 -21 -12 4 -6 -4 -8
-21 -5 -14 3 -26 2 -26 -2 0 -4 -7 -11 -16 -14 -9 -3 -12 -2 -8 5 3 6 -7 4
-24 -5 -16 -8 -32 -13 -35 -10 -3 3 -16 -1 -29 -8 -12 -8 -35 -14 -50 -13 -15
0 -24 -3 -22 -7 3 -4 -2 -9 -10 -9 -16 -1 -28 -4 -43 -9 -5 -1 -11 -2 -15 -1
-5 0 -8 -3 -8 -7 0 -5 -7 -9 -15 -10 -8 -1 -22 -3 -30 -4 -8 -1 -15 -6 -15
-11 0 -5 -7 -7 -15 -3 -8 3 -15 1 -15 -5 0 -6 -4 -7 -10 -4 -5 3 -10 2 -10 -4
0 -6 -7 -8 -15 -5 -8 4 -15 1 -15 -6 0 -7 -7 -10 -15 -6 -8 3 -15 1 -15 -5 0
-6 -4 -8 -9 -4 -5 3 -12 1 -16 -5 -4 -6 -11 -8 -16 -5 -5 4 -9 1 -9 -5 0 -7
-7 -9 -16 -6 -10 4 -13 2 -8 -6 5 -8 2 -9 -9 -5 -10 3 -17 2 -17 -4 0 -6 -4
-7 -10 -4 -5 3 -10 1 -10 -5 0 -6 -4 -9 -9 -5 -5 3 -12 1 -16 -5 -4 -6 -11 -8
-16 -5 -5 4 -9 1 -9 -5 0 -6 -4 -8 -10 -5 -5 3 -10 1 -10 -5 0 -7 -7 -9 -16
-6 -8 3 -12 2 -9 -4 3 -6 -1 -10 -10 -10 -9 0 -30 -9 -46 -21 -16 -11 -33 -17
-39 -14 -5 3 -10 1 -10 -5 0 -6 -5 -8 -10 -5 -6 3 -13 0 -16 -9 -3 -8 -14 -13
-25 -11 -11 2 -17 0 -14 -5 3 -5 -6 -12 -20 -16 -14 -3 -25 -10 -25 -16 0 -5
-4 -6 -10 -3 -5 3 -10 1 -10 -5 0 -6 -4 -8 -10 -5 -5 3 -10 1 -10 -5 0 -7 -7
-9 -16 -6 -10 4 -13 2 -8 -6 5 -8 2 -9 -10 -5 -9 4 -15 3 -12 -2 7 -11 -13
-28 -39 -33 -11 -1 -26 -9 -33 -15 -7 -7 -20 -13 -28 -13 -8 0 -14 -5 -14 -10
0 -6 -16 -18 -35 -27 -19 -9 -35 -21 -35 -25 0 -5 -4 -6 -10 -3 -5 3 -10 1
-10 -5 0 -6 -4 -9 -9 -5 -6 3 -14 -2 -19 -10 -5 -9 -17 -17 -27 -19 -10 -1
-24 -11 -31 -21 -8 -10 -14 -15 -14 -11 0 4 -11 -4 -23 -18 -13 -14 -27 -23
-30 -19 -4 3 -9 -2 -13 -11 -3 -9 -10 -14 -14 -11 -4 3 -11 -2 -14 -11 -3 -8
-10 -13 -15 -10 -5 3 -12 -1 -15 -10 -3 -8 -12 -14 -19 -12 -7 2 -14 -1 -16
-7 -5 -18 -23 -35 -31 -30 -4 3 -11 -2 -14 -11 -3 -8 -11 -12 -16 -9 -6 4 -9
2 -8 -3 4 -13 -53 -62 -71 -62 -8 0 -12 -3 -8 -6 8 -8 -16 -33 -25 -27 -5 2
-8 -2 -8 -10 0 -15 -27 -32 -43 -28 -5 1 -6 -3 -2 -9 3 -5 -1 -10 -9 -10 -9 0
-15 -3 -14 -7 1 -5 -11 -22 -28 -38 l-31 -31 -10 26 c-25 61 -35 89 -33 92 2
2 -7 22 -19 46 -12 23 -19 42 -17 42 4 0 -25 92 -41 130 -4 8 -8 22 -9 30 -1
8 -7 29 -14 45 -7 17 -13 33 -12 37 1 4 -3 19 -8 33 -5 14 -12 36 -15 48 -3
12 -14 56 -26 97 -11 41 -22 84 -24 95 -1 11 -8 38 -13 60 -6 22 -13 51 -16
65 -58 327 -79 378 -91 228z m5298 -7153 c-3 -9 -8 -14 -10 -11 -3 3 -2 9 2
15 9 16 15 13 8 -4z m-1003 -499 c0 -3 -4 -8 -10 -11 -5 -3 -10 -1 -10 4 0 6
5 11 10 11 6 0 10 -2 10 -4z"/>
<path d="M7720 5281 c0 -6 4 -13 10 -16 6 -3 7 1 4 9 -7 18 -14 21 -14 7z"/>
<path d="M7920 3580 c-9 -6 -10 -10 -3 -10 6 0 15 5 18 10 8 12 4 12 -15 0z"/>
<path d="M610 1966 c0 -2 7 -7 16 -10 8 -3 12 -2 9 4 -6 10 -25 14 -25 6z"/>
<path d="M7230 1739 c0 -5 5 -7 10 -4 6 3 10 8 10 11 0 2 -4 4 -10 4 -5 0 -10
-5 -10 -11z"/>
<path d="M7069 1533 c-29 -35 -41 -53 -36 -53 2 0 17 16 31 35 28 36 31 49 5
18z"/>
<path d="M1062 1366 c7 -8 15 -12 17 -11 5 6 -10 25 -20 25 -5 0 -4 -6 3 -14z"/>
<path d="M1146 1278 c10 -14 21 -24 23 -22 3 3 -6 15 -18 27 l-24 22 19 -27z"/>
<path d="M1450 986 c0 -2 7 -7 16 -10 8 -3 12 -2 9 4 -6 10 -25 14 -25 6z"/>
<path d="M6470 935 c-7 -9 -11 -17 -9 -20 3 -2 10 5 17 15 14 24 10 26 -8 5z"/>
<path d="M6305 809 c-11 -16 -1 -19 13 -3 7 8 8 14 3 14 -5 0 -13 -5 -16 -11z"/>
<path d="M2110 536 c0 -2 7 -7 16 -10 8 -3 12 -2 9 4 -6 10 -25 14 -25 6z"/>
</g>
</svg>
